<mxfile host="app.diagrams.net" agent="Mozilla/5.0 (Windows NT 10.0; Win64; x64) AppleWebKit/537.36 (KHTML, like Gecko) Chrome/136.0.0.0 Safari/537.36 Edg/136.0.0.0" version="26.2.14">
  <diagram name="Страница — 1" id="zkORrOJKnHEZBYoQxjxf">
    <mxGraphModel dx="2108" dy="749" grid="1" gridSize="10" guides="1" tooltips="1" connect="1" arrows="1" fold="1" page="1" pageScale="1" pageWidth="827" pageHeight="1169" math="0" shadow="0">
      <root>
        <mxCell id="0" />
        <mxCell id="1" parent="0" />
        <mxCell id="f-e8-8Of3rT3gOB11HLh-1" value=": Интерфейс" style="html=1;whiteSpace=wrap;" parent="1" vertex="1">
          <mxGeometry x="80" y="80" width="120" height="40" as="geometry" />
        </mxCell>
        <mxCell id="f-e8-8Of3rT3gOB11HLh-2" value=":&amp;nbsp;Офицер кадровой службы" style="shape=umlActor;verticalLabelPosition=bottom;verticalAlign=top;html=1;" parent="1" vertex="1">
          <mxGeometry x="-80" y="40" width="40" height="80" as="geometry" />
        </mxCell>
        <mxCell id="f-e8-8Of3rT3gOB11HLh-3" value=": Контроллер запросов" style="html=1;whiteSpace=wrap;" parent="1" vertex="1">
          <mxGeometry x="320" y="80" width="120" height="40" as="geometry" />
        </mxCell>
        <mxCell id="f-e8-8Of3rT3gOB11HLh-4" value=": Подразделение" style="html=1;whiteSpace=wrap;" parent="1" vertex="1">
          <mxGeometry x="710" y="80" width="120" height="40" as="geometry" />
        </mxCell>
        <mxCell id="f-e8-8Of3rT3gOB11HLh-5" value=": Военнослужащий" style="html=1;whiteSpace=wrap;" parent="1" vertex="1">
          <mxGeometry x="850" y="80" width="120" height="40" as="geometry" />
        </mxCell>
        <mxCell id="f-e8-8Of3rT3gOB11HLh-7" value="" style="endArrow=none;dashed=1;html=1;rounded=0;" parent="1" edge="1">
          <mxGeometry width="50" height="50" relative="1" as="geometry">
            <mxPoint x="-61" y="710" as="sourcePoint" />
            <mxPoint x="-61" y="120" as="targetPoint" />
          </mxGeometry>
        </mxCell>
        <mxCell id="f-e8-8Of3rT3gOB11HLh-9" value="" style="endArrow=none;dashed=1;html=1;rounded=0;" parent="1" edge="1">
          <mxGeometry width="50" height="50" relative="1" as="geometry">
            <mxPoint x="140" y="710" as="sourcePoint" />
            <mxPoint x="139.5" y="120" as="targetPoint" />
          </mxGeometry>
        </mxCell>
        <mxCell id="f-e8-8Of3rT3gOB11HLh-10" value="" style="endArrow=none;dashed=1;html=1;rounded=0;" parent="1" edge="1">
          <mxGeometry width="50" height="50" relative="1" as="geometry">
            <mxPoint x="380" y="700" as="sourcePoint" />
            <mxPoint x="379.5" y="120" as="targetPoint" />
          </mxGeometry>
        </mxCell>
        <mxCell id="f-e8-8Of3rT3gOB11HLh-11" value="" style="endArrow=none;dashed=1;html=1;rounded=0;" parent="1" edge="1">
          <mxGeometry width="50" height="50" relative="1" as="geometry">
            <mxPoint x="770" y="720" as="sourcePoint" />
            <mxPoint x="769.5" y="120" as="targetPoint" />
          </mxGeometry>
        </mxCell>
        <mxCell id="f-e8-8Of3rT3gOB11HLh-12" value="" style="endArrow=none;dashed=1;html=1;rounded=0;" parent="1" edge="1">
          <mxGeometry width="50" height="50" relative="1" as="geometry">
            <mxPoint x="910" y="700" as="sourcePoint" />
            <mxPoint x="909.5" y="120" as="targetPoint" />
          </mxGeometry>
        </mxCell>
        <mxCell id="f-e8-8Of3rT3gOB11HLh-15" value="" style="rounded=0;whiteSpace=wrap;html=1;" parent="1" vertex="1">
          <mxGeometry x="130" y="160" width="20" height="520" as="geometry" />
        </mxCell>
        <mxCell id="f-e8-8Of3rT3gOB11HLh-13" value="УказатьЗапрос(типЗапроса)" style="html=1;verticalAlign=bottom;endArrow=block;curved=0;rounded=0;" parent="1" edge="1">
          <mxGeometry width="80" relative="1" as="geometry">
            <mxPoint x="-60" y="160" as="sourcePoint" />
            <mxPoint x="130" y="160" as="targetPoint" />
          </mxGeometry>
        </mxCell>
        <mxCell id="f-e8-8Of3rT3gOB11HLh-14" value="УказатьИнформацию&lt;div&gt;(&lt;span style=&quot;background-color: light-dark(#ffffff, var(--ge-dark-color, #121212));&quot;&gt;Наименование военной части;&amp;nbsp;&lt;/span&gt;&lt;/div&gt;&lt;div&gt;&lt;span style=&quot;background-color: light-dark(#ffffff, var(--ge-dark-color, #121212)); color: light-dark(rgb(0, 0, 0), rgb(255, 255, 255));&quot;&gt;Подразделение;&amp;nbsp;&lt;/span&gt;&lt;/div&gt;&lt;div&gt;&lt;span style=&quot;background-color: light-dark(#ffffff, var(--ge-dark-color, #121212)); color: light-dark(rgb(0, 0, 0), rgb(255, 255, 255));&quot;&gt;Военная специальность)&lt;/span&gt;&lt;div&gt;&lt;br&gt;&lt;/div&gt;&lt;/div&gt;" style="html=1;verticalAlign=bottom;endArrow=block;curved=0;rounded=0;" parent="1" edge="1">
          <mxGeometry width="80" relative="1" as="geometry">
            <mxPoint x="-60" y="320" as="sourcePoint" />
            <mxPoint x="140" y="320" as="targetPoint" />
          </mxGeometry>
        </mxCell>
        <mxCell id="f-e8-8Of3rT3gOB11HLh-16" value="" style="rounded=0;whiteSpace=wrap;html=1;" parent="1" vertex="1">
          <mxGeometry x="370" y="190" width="20" height="50" as="geometry" />
        </mxCell>
        <mxCell id="f-e8-8Of3rT3gOB11HLh-17" value="Запрос(типЗапроса)" style="html=1;verticalAlign=bottom;endArrow=block;curved=0;rounded=0;" parent="1" edge="1">
          <mxGeometry width="80" relative="1" as="geometry">
            <mxPoint x="152" y="190" as="sourcePoint" />
            <mxPoint x="370" y="190" as="targetPoint" />
          </mxGeometry>
        </mxCell>
        <mxCell id="f-e8-8Of3rT3gOB11HLh-18" value="ДекодЗапрос(типЗапроса)" style="html=1;verticalAlign=bottom;endArrow=block;curved=0;rounded=0;entryX=1;entryY=1;entryDx=0;entryDy=0;" parent="1" target="f-e8-8Of3rT3gOB11HLh-16" edge="1">
          <mxGeometry width="80" relative="1" as="geometry">
            <mxPoint x="390" y="210" as="sourcePoint" />
            <mxPoint x="520" y="210" as="targetPoint" />
            <Array as="points">
              <mxPoint x="480" y="210" />
              <mxPoint x="480" y="240" />
            </Array>
          </mxGeometry>
        </mxCell>
        <mxCell id="f-e8-8Of3rT3gOB11HLh-19" value="" style="rounded=0;whiteSpace=wrap;html=1;" parent="1" vertex="1">
          <mxGeometry x="370" y="350" width="20" height="260" as="geometry" />
        </mxCell>
        <mxCell id="f-e8-8Of3rT3gOB11HLh-20" value="" style="rounded=0;whiteSpace=wrap;html=1;" parent="1" vertex="1">
          <mxGeometry x="140" y="280" width="20" height="40" as="geometry" />
        </mxCell>
        <mxCell id="f-e8-8Of3rT3gOB11HLh-21" value="ЗапроситьИнформацию&lt;div&gt;(Наименование военной части;&amp;nbsp;&lt;/div&gt;&lt;div&gt;&lt;span style=&quot;color: light-dark(rgb(0, 0, 0), rgb(255, 255, 255));&quot;&gt;Подразделение;&amp;nbsp;&lt;/span&gt;&lt;/div&gt;&lt;div&gt;&lt;span style=&quot;color: light-dark(rgb(0, 0, 0), rgb(255, 255, 255));&quot;&gt;Воинскую специальность)&lt;/span&gt;&lt;/div&gt;" style="html=1;verticalAlign=bottom;endArrow=block;curved=0;rounded=0;" parent="1" edge="1">
          <mxGeometry width="80" relative="1" as="geometry">
            <mxPoint x="153" y="250" as="sourcePoint" />
            <mxPoint x="160" y="280" as="targetPoint" />
            <Array as="points">
              <mxPoint x="260" y="250" />
              <mxPoint x="260" y="280" />
            </Array>
          </mxGeometry>
        </mxCell>
        <mxCell id="f-e8-8Of3rT3gOB11HLh-22" value="ВыполЗапрос(данные)" style="html=1;verticalAlign=bottom;endArrow=block;curved=0;rounded=0;exitX=1.1;exitY=0.075;exitDx=0;exitDy=0;exitPerimeter=0;" parent="1" edge="1">
          <mxGeometry width="80" relative="1" as="geometry">
            <mxPoint x="152" y="352" as="sourcePoint" />
            <mxPoint x="370" y="350" as="targetPoint" />
          </mxGeometry>
        </mxCell>
        <mxCell id="f-e8-8Of3rT3gOB11HLh-23" value="ПоказСведения(сведения)" style="html=1;verticalAlign=bottom;endArrow=block;curved=0;rounded=0;entryX=1;entryY=1;entryDx=0;entryDy=0;" parent="1" edge="1">
          <mxGeometry width="80" relative="1" as="geometry">
            <mxPoint x="150" y="630" as="sourcePoint" />
            <mxPoint x="150" y="660" as="targetPoint" />
            <Array as="points">
              <mxPoint x="240" y="630" />
              <mxPoint x="240" y="660" />
            </Array>
          </mxGeometry>
        </mxCell>
        <mxCell id="f-e8-8Of3rT3gOB11HLh-24" value="НайтиВоеннослужащих&lt;div&gt;&lt;div&gt;(Наименование военной части;&amp;nbsp;&lt;/div&gt;&lt;div&gt;&lt;span style=&quot;color: light-dark(rgb(0, 0, 0), rgb(255, 255, 255));&quot;&gt;Подразделение;&amp;nbsp;&lt;/span&gt;&lt;/div&gt;&lt;div&gt;&lt;span style=&quot;color: light-dark(rgb(0, 0, 0), rgb(255, 255, 255));&quot;&gt;Военная специальность)&lt;/span&gt;&lt;div&gt;&lt;br&gt;&lt;/div&gt;&lt;/div&gt;&lt;/div&gt;" style="html=1;verticalAlign=bottom;endArrow=block;curved=0;rounded=0;entryX=1;entryY=1;entryDx=0;entryDy=0;" parent="1" edge="1">
          <mxGeometry width="80" relative="1" as="geometry">
            <mxPoint x="390" y="370" as="sourcePoint" />
            <mxPoint x="390" y="400" as="targetPoint" />
            <Array as="points">
              <mxPoint x="480" y="370" />
              <mxPoint x="480" y="400" />
            </Array>
          </mxGeometry>
        </mxCell>
        <mxCell id="f-e8-8Of3rT3gOB11HLh-25" value=": ВоеннаяЧасть" style="html=1;whiteSpace=wrap;" parent="1" vertex="1">
          <mxGeometry x="530" y="80" width="120" height="40" as="geometry" />
        </mxCell>
        <mxCell id="f-e8-8Of3rT3gOB11HLh-26" value="" style="endArrow=none;dashed=1;html=1;rounded=0;" parent="1" edge="1">
          <mxGeometry width="50" height="50" relative="1" as="geometry">
            <mxPoint x="590" y="710" as="sourcePoint" />
            <mxPoint x="589.5" y="120" as="targetPoint" />
          </mxGeometry>
        </mxCell>
        <mxCell id="f-e8-8Of3rT3gOB11HLh-27" value="СведенияОВоеннойЧасти()" style="html=1;verticalAlign=bottom;endArrow=block;curved=0;rounded=0;exitX=1.1;exitY=0.075;exitDx=0;exitDy=0;exitPerimeter=0;entryX=0;entryY=0;entryDx=0;entryDy=0;" parent="1" target="f-e8-8Of3rT3gOB11HLh-29" edge="1">
          <mxGeometry width="80" relative="1" as="geometry">
            <mxPoint x="392" y="442" as="sourcePoint" />
            <mxPoint x="590" y="440" as="targetPoint" />
          </mxGeometry>
        </mxCell>
        <mxCell id="f-e8-8Of3rT3gOB11HLh-29" value="" style="rounded=0;whiteSpace=wrap;html=1;" parent="1" vertex="1">
          <mxGeometry x="580" y="440" width="20" height="140" as="geometry" />
        </mxCell>
        <mxCell id="f-e8-8Of3rT3gOB11HLh-30" value="СведенияОПодразделениях()" style="html=1;verticalAlign=bottom;endArrow=block;curved=0;rounded=0;entryX=0;entryY=0;entryDx=0;entryDy=0;" parent="1" target="f-e8-8Of3rT3gOB11HLh-31" edge="1">
          <mxGeometry width="80" relative="1" as="geometry">
            <mxPoint x="600" y="450" as="sourcePoint" />
            <mxPoint x="770" y="450" as="targetPoint" />
          </mxGeometry>
        </mxCell>
        <mxCell id="f-e8-8Of3rT3gOB11HLh-31" value="" style="rounded=0;whiteSpace=wrap;html=1;" parent="1" vertex="1">
          <mxGeometry x="760" y="450" width="20" height="80" as="geometry" />
        </mxCell>
        <mxCell id="f-e8-8Of3rT3gOB11HLh-32" value="" style="rounded=0;whiteSpace=wrap;html=1;" parent="1" vertex="1">
          <mxGeometry x="900" y="470" width="20" height="50" as="geometry" />
        </mxCell>
        <mxCell id="f-e8-8Of3rT3gOB11HLh-33" value="СведенияОВоеннослужащих()" style="html=1;verticalAlign=bottom;endArrow=block;curved=0;rounded=0;" parent="1" edge="1">
          <mxGeometry width="80" relative="1" as="geometry">
            <mxPoint x="780" y="470" as="sourcePoint" />
            <mxPoint x="900" y="470" as="targetPoint" />
          </mxGeometry>
        </mxCell>
        <mxCell id="f-e8-8Of3rT3gOB11HLh-34" value="Сведения о&amp;nbsp;&lt;div&gt;военнослужащих с&amp;nbsp;&lt;/div&gt;&lt;div&gt;N специальностью&lt;/div&gt;" style="endArrow=open;endSize=12;dashed=1;html=1;rounded=0;entryX=1;entryY=0.75;entryDx=0;entryDy=0;" parent="1" target="f-e8-8Of3rT3gOB11HLh-31" edge="1">
          <mxGeometry width="160" relative="1" as="geometry">
            <mxPoint x="900" y="510" as="sourcePoint" />
            <mxPoint x="810" y="510" as="targetPoint" />
          </mxGeometry>
        </mxCell>
        <mxCell id="f-e8-8Of3rT3gOB11HLh-35" value="Сведения о&amp;nbsp;&lt;div&gt;военнослужащих&amp;nbsp;&lt;/div&gt;&lt;div&gt;в X подразделении&lt;/div&gt;" style="endArrow=open;endSize=12;dashed=1;html=1;rounded=0;exitX=0;exitY=1;exitDx=0;exitDy=0;" parent="1" edge="1">
          <mxGeometry width="160" relative="1" as="geometry">
            <mxPoint x="760" y="520" as="sourcePoint" />
            <mxPoint x="600" y="520" as="targetPoint" />
          </mxGeometry>
        </mxCell>
        <mxCell id="f-e8-8Of3rT3gOB11HLh-36" value="Сведения о&amp;nbsp;&lt;div&gt;военнослужащих&amp;nbsp;&lt;/div&gt;&lt;div&gt;в Y военной части&lt;/div&gt;" style="endArrow=open;endSize=12;dashed=1;html=1;rounded=0;entryX=1;entryY=0.75;entryDx=0;entryDy=0;exitX=0;exitY=0.75;exitDx=0;exitDy=0;" parent="1" source="f-e8-8Of3rT3gOB11HLh-29" edge="1" target="f-e8-8Of3rT3gOB11HLh-19">
          <mxGeometry width="160" relative="1" as="geometry">
            <mxPoint x="580" y="540" as="sourcePoint" />
            <mxPoint x="390" y="490" as="targetPoint" />
          </mxGeometry>
        </mxCell>
        <mxCell id="f-e8-8Of3rT3gOB11HLh-37" value="Сведения по запросу" style="endArrow=open;endSize=12;dashed=1;html=1;rounded=0;exitX=0.225;exitY=0.963;exitDx=0;exitDy=0;entryX=0.975;entryY=0.849;entryDx=0;entryDy=0;entryPerimeter=0;exitPerimeter=0;" parent="1" source="f-e8-8Of3rT3gOB11HLh-19" edge="1" target="f-e8-8Of3rT3gOB11HLh-15">
          <mxGeometry width="160" relative="1" as="geometry">
            <mxPoint x="340" y="480" as="sourcePoint" />
            <mxPoint x="150" y="480" as="targetPoint" />
          </mxGeometry>
        </mxCell>
        <mxCell id="f-e8-8Of3rT3gOB11HLh-38" value="Информация по запросу" style="endArrow=open;endSize=12;dashed=1;html=1;rounded=0;exitX=-0.168;exitY=0.81;exitDx=0;exitDy=0;exitPerimeter=0;" parent="1" edge="1">
          <mxGeometry width="160" relative="1" as="geometry">
            <mxPoint x="130" y="670" as="sourcePoint" />
            <mxPoint x="-57" y="670" as="targetPoint" />
          </mxGeometry>
        </mxCell>
        <mxCell id="f-e8-8Of3rT3gOB11HLh-39" value="Запрос Информации" style="endArrow=open;endSize=12;dashed=1;html=1;rounded=0;exitX=-0.168;exitY=0.81;exitDx=0;exitDy=0;exitPerimeter=0;" parent="1" edge="1">
          <mxGeometry width="160" relative="1" as="geometry">
            <mxPoint x="130" y="220" as="sourcePoint" />
            <mxPoint x="-60" y="220" as="targetPoint" />
          </mxGeometry>
        </mxCell>
        <mxCell id="UC69GeY1E0cIuQ3gOjsi-1" value="&lt;font style=&quot;color: rgb(54, 54, 54);&quot;&gt;Типы требуемых значений&lt;/font&gt;" style="endArrow=open;endSize=12;dashed=1;html=1;rounded=0;exitX=-0.168;exitY=0.81;exitDx=0;exitDy=0;exitPerimeter=0;" edge="1" parent="1">
          <mxGeometry width="160" relative="1" as="geometry">
            <mxPoint x="367" y="200" as="sourcePoint" />
            <mxPoint x="150" y="200" as="targetPoint" />
          </mxGeometry>
        </mxCell>
        <mxCell id="UC69GeY1E0cIuQ3gOjsi-16" value="" style="endArrow=none;dashed=1;html=1;rounded=0;" edge="1" parent="1">
          <mxGeometry width="50" height="50" relative="1" as="geometry">
            <mxPoint x="1050" y="700" as="sourcePoint" />
            <mxPoint x="1049.5" y="120" as="targetPoint" />
          </mxGeometry>
        </mxCell>
        <mxCell id="UC69GeY1E0cIuQ3gOjsi-17" value="" style="rounded=0;whiteSpace=wrap;html=1;" vertex="1" parent="1">
          <mxGeometry x="1040" y="470" width="20" height="50" as="geometry" />
        </mxCell>
        <mxCell id="UC69GeY1E0cIuQ3gOjsi-18" value="Сведения()" style="html=1;verticalAlign=bottom;endArrow=block;curved=0;rounded=0;" edge="1" parent="1">
          <mxGeometry width="80" relative="1" as="geometry">
            <mxPoint x="920" y="470" as="sourcePoint" />
            <mxPoint x="1040" y="470" as="targetPoint" />
          </mxGeometry>
        </mxCell>
        <mxCell id="UC69GeY1E0cIuQ3gOjsi-19" value="Сведения о&amp;nbsp;&lt;div&gt;специальностях&lt;/div&gt;" style="endArrow=open;endSize=12;dashed=1;html=1;rounded=0;entryX=1;entryY=0.75;entryDx=0;entryDy=0;" edge="1" parent="1">
          <mxGeometry width="160" relative="1" as="geometry">
            <mxPoint x="1040" y="510" as="sourcePoint" />
            <mxPoint x="920" y="510" as="targetPoint" />
          </mxGeometry>
        </mxCell>
        <mxCell id="UC69GeY1E0cIuQ3gOjsi-20" value=": Воен.Специальность" style="html=1;whiteSpace=wrap;" vertex="1" parent="1">
          <mxGeometry x="990" y="80" width="130" height="40" as="geometry" />
        </mxCell>
      </root>
    </mxGraphModel>
  </diagram>
</mxfile>
